<?xml version="1.0" encoding="utf-8"?>
<!-- Generator: Adobe Illustrator 14.0.0, SVG Export Plug-In . SVG Version: 6.00 Build 43363)  -->
<!DOCTYPE svg PUBLIC "-//W3C//DTD SVG 1.1//EN" "http://www.w3.org/Graphics/SVG/1.1/DTD/svg11.dtd">
<svg version="1.1" id="Ebene_1" xmlns="http://www.w3.org/2000/svg" xmlns:xlink="http://www.w3.org/1999/xlink" x="0px" y="0px"
	 width="56.69px" height="19.84px" viewBox="0 0 56.69 19.84" enable-background="new 0 0 56.69 19.84" xml:space="preserve">
<g>
	<path fill="#054B95" d="M51.566,5.293h-7.185c-1.304,0-2.288,0.116-2.288,1.397c0,1.389,0.946,1.389,2.288,1.389h3.347
		c3.472,0,5.33,1.63,5.33,4.554c0,2.967-1.653,4.916-4.152,4.916H37.944V14.03h8.783c1.495,0,2.179-0.247,2.179-1.397
		c0-1.032-0.687-1.294-2.179-1.294H43.19c-3.822,0-5.46-0.958-5.46-4.649c0-3.39,1.78-4.897,5.578-4.897l8.258-0.017V5.293
		L51.566,5.293z"/>
	<path fill="#054B95" d="M17.11,17.549h-4.995c-2.587,0-4.446-0.447-5.917-1.888c-1.437-1.406-2.333-3.595-2.333-5.952
		c0-5.345,3.215-7.933,8.249-7.933h5.657v3.517h-4.441c-3.515,0-5.042,0.847-5.042,4.416c0,1.856,0.56,3.043,1.811,3.799
		c0.932,0.566,2.186,0.522,3.231,0.522h3.779V17.549L17.11,17.549z"/>
	<path fill="#054B95" d="M20.31,5.293c1.814-2.584,4.121-3.732,7.325-3.732c5.11,0,8.336,3.263,8.336,8.148
		c0,4.855-3.164,8.054-8.336,8.054c-3.1,0-5.463-1.365-7.325-3.732h7.325c1.623,0,2.394-0.164,3.199-0.938
		c0.836-0.801,1.379-1.916,1.379-3.384c0-1.387-0.556-2.578-1.379-3.384c-0.809-0.792-1.588-1.032-3.199-1.032L20.31,5.293
		L20.31,5.293z"/>
	<path fill="#054B95" d="M19.64,7.538h7.035c1.378,0,2.43,0.541,2.43,2.171s-1.052,2.171-2.43,2.171H19.64
		c-0.119-0.352-0.33-1.262-0.325-2.171C19.32,8.788,19.541,7.868,19.64,7.538L19.64,7.538z"/>
</g>
</svg>
